# xmcd
#
# Track frame offsets: 
#        150
#        24100
#        51343
#        69640
#        107157
#        143726
#        171882
#        202525
#        223656
#        250929
#        288442
#        319235
#
# Disc length: 4652 seconds
#
# Revision: 3
# Processed by: cddbd v1.5.2PL0 Copyright (c) Steve Scherf et al.
# Submitted via: ExactAudioCopyFreeDBPlugin 1.0
#
DISCID=ad122a0c
DTITLE=Nile Rodgers - 2013 - The Chic Organisation: Up All night [CD1]
DYEAR=2013
DGENRE=Disco
TTITLE0=Chic - Le Freak
TTITLE1=Sister Sledge - He's The Greatest Dancer
TTITLE2=Diana Ross - Upside Down
TTITLE3=Chic - Everybody Dance (12-inch version)
TTITLE4=Sister Sledge - We Are Family
TTITLE5=Sheila and B. Devotion - Spacer
TTITLE6=Chic - I Want Your Love
TTITLE7=Sister Sledge - Lost In Music
TTITLE8=Norma Jean Wright - Saturday
TTITLE9=Chic - Dance, Dance, Dance (Yowsah, Yowsah, Yowsah)
TTITLE10=Sister Sledge - Got To Love Somebody
TTITLE11=Chic - My Feet Keep Dancing
EXTD=YEAR: 2013
EXTT0=
EXTT1=
EXTT2=
EXTT3=
EXTT4=
EXTT5=
EXTT6=
EXTT7=
EXTT8=
EXTT9=
EXTT10=
EXTT11=
PLAYORDER=
